<svg width="25" height="31" viewBox="0 0 25 31" fill="none" xmlns="http://www.w3.org/2000/svg">
<path fill-rule="evenodd" clip-rule="evenodd" d="M18.9845 6.13329C18.9845 2.74597 16.0597 0 12.4517 0C8.84364 0 5.91877 2.74597 5.91877 6.13329V14.1066C5.91877 17.4939 8.84364 20.2399 12.4517 20.2399C16.0597 20.2399 18.9845 17.4939 18.9845 14.1066V6.13329ZM23.6572 12.6523C24.4209 12.6733 25.0218 13.2716 24.9994 13.9886C24.9412 15.8489 24.3075 17.8201 23.2325 19.5683C21.1685 22.9245 17.5995 24.9563 13.7879 25.346V27.0889H18.3088C19.1707 27.0889 19.8695 27.8466 19.8695 28.7813C19.8695 29.6492 19.267 30.3646 18.4908 30.4623L18.3088 30.4737H5.82301C4.96105 30.4737 4.26229 29.716 4.26229 28.7813C4.26229 27.9134 4.86479 27.1981 5.64099 27.1003L5.82301 27.0889H10.3477V25.2483C8.93422 25.0212 7.53887 24.5593 6.22438 23.8468C2.41508 21.782 0.0987173 18.0323 0.000366273 13.9801C-0.0170393 13.263 0.588068 12.6684 1.35191 12.6521C2.11576 12.6357 2.74908 13.2038 2.76649 13.9209C2.84306 17.0755 4.64381 19.9906 7.6078 21.5972C12.2396 24.1078 18.1622 22.6179 20.8363 18.2695C21.6896 16.8819 22.1895 15.327 22.2337 13.9124C22.2562 13.1954 22.8934 12.6312 23.6572 12.6523Z" fill="#486AE4"/>
</svg>
