<svg width="35" height="35" viewBox="0 0 35 35" fill="none" xmlns="http://www.w3.org/2000/svg">
<path d="M7.29167 14.5834C5.6875 14.5834 4.375 15.8959 4.375 17.5C4.375 19.1042 5.6875 20.4167 7.29167 20.4167C8.89583 20.4167 10.2083 19.1042 10.2083 17.5C10.2083 15.8959 8.89583 14.5834 7.29167 14.5834Z" fill="#486AE4"/>
<path d="M27.7083 14.5834C26.1042 14.5834 24.7917 15.8959 24.7917 17.5C24.7917 19.1042 26.1042 20.4167 27.7083 20.4167C29.3125 20.4167 30.625 19.1042 30.625 17.5C30.625 15.8959 29.3125 14.5834 27.7083 14.5834Z" fill="#486AE4"/>
<path d="M17.5 14.5834C15.8958 14.5834 14.5833 15.8959 14.5833 17.5C14.5833 19.1042 15.8958 20.4167 17.5 20.4167C19.1042 20.4167 20.4167 19.1042 20.4167 17.5C20.4167 15.8959 19.1042 14.5834 17.5 14.5834Z" fill="#486AE4"/>
</svg>
