<svg width="34" height="32" viewBox="0 0 34 32" fill="none" xmlns="http://www.w3.org/2000/svg">
<path fill-rule="evenodd" clip-rule="evenodd" d="M27.8182 0C31.2323 0 34 2.57276 34 5.74642V25.8589C34 29.0325 31.2323 31.6053 27.8182 31.6053H6.18182C2.76769 31.6053 0 29.0325 0 25.8589V5.74642C0 2.57276 2.76769 0 6.18182 0H27.8182ZM27.819 2.87311H6.18263C4.47557 2.87311 3.09172 4.15949 3.09172 5.74632V20.781C3.09172 20.9397 3.23011 21.0684 3.40081 21.0684C3.44906 21.0684 3.49665 21.0579 3.53975 21.0377L12.8336 16.6903C15.4552 15.4636 18.5467 15.463 21.1689 16.6887L30.462 21.0322C30.6145 21.1035 30.8003 21.0463 30.877 20.9045C30.8986 20.8645 30.9099 20.8203 30.9099 20.7755V5.74632C30.9099 4.15949 29.5261 2.87311 27.819 2.87311ZM10.0433 5.74692C12.1771 5.74692 13.9069 7.3549 13.9069 9.33843C13.9069 11.322 12.1771 12.9299 10.0433 12.9299C7.90947 12.9299 6.17966 11.322 6.17966 9.33843C6.17966 7.3549 7.90947 5.74692 10.0433 5.74692Z" fill="#486AE4"/>
</svg>
